<?xml version="1.0" standalone="no"?>
<!DOCTYPE svg PUBLIC "-//W3C//DTD SVG 20010904//EN"
 "http://www.w3.org/TR/2001/REC-SVG-20010904/DTD/svg10.dtd">
<svg version="1.0" xmlns="http://www.w3.org/2000/svg"
 width="4632.000000pt" height="3014.000000pt" viewBox="0 0 4632.000000 3014.000000"
 preserveAspectRatio="xMidYMid meet">

<g transform="translate(0.000000,3014.000000) scale(0.100000,-0.100000)"
fill="#000000" stroke="none">
<path d="M21770 30109 c-696 -30 -2149 -201 -2939 -345 -1763 -321 -3381 -926
-4866 -1819 -734 -441 -1390 -920 -1985 -1449 -184 -163 -629 -609 -785 -786
-722 -818 -1252 -1688 -1613 -2645 -560 -1487 -628 -2936 -207 -4400 230 -801
592 -1576 1063 -2282 446 -668 974 -1252 1677 -1858 293 -252 397 -350 601
-562 226 -237 293 -326 301 -398 5 -44 5 -45 -30 -60 -87 -36 -191 -38 -2692
-42 -1347 -2 -2548 0 -2667 5 l-217 8 -83 41 c-46 23 -109 65 -140 92 -72 65
-240 261 -448 521 -91 113 -197 244 -237 292 l-72 88 -24 -33 c-127 -170 -524
-752 -612 -895 -34 -56 -37 -66 -28 -95 10 -32 204 -328 436 -665 69 -100 165
-246 214 -325 107 -173 179 -249 284 -301 146 -72 -326 -66 5274 -66 4370 0
5086 2 5249 15 104 8 191 16 193 18 2 3 -29 24 -68 47 -256 152 -762 510
-1074 759 -1078 861 -1899 1882 -2499 3106 -491 1001 -771 2009 -872 3140 -21
242 -30 937 -15 1205 95 1698 565 3131 1477 4505 567 855 1253 1597 2029 2196
1005 775 2203 1352 3463 1668 1384 347 2820 372 4297 76 2239 -450 4031 -1504
5370 -3160 569 -704 1085 -1581 1430 -2435 697 -1720 809 -3546 335 -5460
-388 -1567 -1108 -2866 -2185 -3945 -335 -335 -629 -596 -1569 -1389 -182
-153 -348 -294 -370 -313 l-38 -35 5163 5 5164 5 95 20 c143 32 262 94 340
179 135 148 335 435 612 878 187 301 181 290 174 328 -6 32 -97 182 -204 337
-76 110 -429 599 -447 618 -12 13 -157 -160 -536 -638 -206 -259 -344 -364
-519 -393 -60 -10 -592 -12 -2610 -6 -2240 6 -2551 8 -2669 23 -251 30 -259
37 -196 162 19 38 64 107 102 154 67 85 529 551 1269 1280 514 506 688 700
987 1098 830 1105 1323 2357 1462 3712 29 291 38 511 32 845 -6 323 -11 412
-43 665 -99 806 -355 1610 -769 2425 -982 1928 -2622 3454 -4984 4634 -2030
1016 -4290 1551 -6966 1651 -302 11 -540 11 -815 -1z"/>
<path d="M4570 10035 l0 -1498 818 6 c942 7 1013 12 1186 84 291 121 487 434
488 778 0 134 -19 219 -75 335 -75 155 -254 308 -422 360 -61 19 -62 26 -9 54
123 63 227 177 294 321 51 110 65 171 65 300 0 126 -13 189 -62 295 -82 181
-235 322 -423 391 -163 59 -208 62 -1072 66 l-788 5 0 -1497z m1445 975 c206
-23 315 -134 315 -319 0 -107 -22 -165 -88 -231 -108 -108 -178 -120 -704
-120 l-368 0 0 340 0 340 378 0 c207 0 418 -5 467 -10z m96 -1203 c100 -19
179 -60 235 -119 74 -79 89 -123 89 -258 0 -106 -2 -120 -28 -172 -31 -62 -84
-116 -149 -149 -94 -49 -124 -51 -620 -56 l-468 -5 0 392 0 392 433 -5 c320
-4 452 -9 508 -20z"/>
<path d="M7852 10038 l-580 -1493 316 -3 c208 -1 318 1 322 8 4 6 60 159 126
340 l119 330 597 0 596 0 46 -117 c25 -65 83 -217 130 -338 l84 -220 326 -3
c179 -1 326 1 326 5 0 4 -268 677 -596 1495 l-597 1488 -317 0 -317 0 -581
-1492z m1102 230 c108 -289 196 -529 196 -532 0 -3 -182 -6 -404 -6 l-404 0
194 533 c107 292 197 539 200 547 5 13 6 13 14 0 4 -8 96 -252 204 -542z"/>
<path d="M10580 10035 l0 -1495 280 0 280 0 2 971 3 971 599 -971 598 -971
304 0 304 0 0 1495 0 1495 -280 0 -280 0 -2 -997 -3 -996 -610 996 -609 997
-293 0 -293 0 0 -1495z"/>
<path d="M13590 10035 l0 -1495 280 0 280 0 2 971 3 971 599 -971 598 -971
304 0 304 0 0 1495 0 1495 -280 0 -280 0 -2 -997 -3 -996 -610 996 -609 997
-293 0 -293 0 0 -1495z"/>
<path d="M16873 10038 l-581 -1493 316 -3 c208 -1 318 1 322 8 4 6 60 159 126
340 l119 330 597 0 596 0 46 -117 c25 -65 83 -217 130 -338 l84 -220 326 -3
c179 -1 326 1 326 5 0 4 -268 677 -596 1495 l-597 1488 -317 0 -317 0 -580
-1492z m1101 230 c108 -289 196 -529 196 -532 0 -3 -182 -6 -404 -6 l-404 0
194 533 c107 292 197 539 200 547 5 13 6 13 14 0 4 -8 96 -252 204 -542z"/>
<path d="M19610 10036 l0 -1496 300 0 300 0 0 625 0 625 119 0 c308 0 409 -48
577 -274 42 -56 207 -296 366 -534 160 -239 295 -436 302 -438 6 -2 169 -3
362 -2 l350 3 -243 388 c-133 214 -279 441 -325 505 -105 147 -225 268 -352
354 -56 38 -93 69 -85 72 8 2 63 15 124 30 192 45 364 145 466 270 200 245
232 638 78 937 -100 192 -247 313 -451 369 -182 50 -239 53 -1090 57 l-798 4
0 -1495z m1494 974 c96 -14 176 -53 230 -110 53 -57 73 -101 86 -187 24 -172
-49 -326 -185 -389 -87 -40 -159 -46 -602 -51 l-423 -5 0 376 0 376 413 0
c226 0 443 -5 481 -10z"/>
<path d="M22600 10035 l0 -1495 300 0 300 0 0 1495 0 1495 -300 0 -300 0 0
-1495z"/>
<path d="M25053 10038 l-581 -1493 316 -3 c208 -1 318 1 322 8 4 6 60 159 126
340 l119 330 597 0 596 0 46 -117 c25 -65 83 -217 130 -338 l84 -220 326 -3
c179 -1 326 1 326 5 0 4 -268 677 -596 1495 l-597 1488 -317 0 -317 0 -580
-1492z m1101 230 c108 -289 196 -529 196 -532 0 -3 -182 -6 -404 -6 l-404 0
194 533 c107 292 197 539 200 547 5 13 6 13 14 0 4 -8 96 -252 204 -542z"/>
<path d="M27770 10035 l0 -1495 278 0 279 0 6 437 c4 240 7 765 8 1167 l1 731
292 -1167 291 -1168 290 0 290 0 290 1161 c288 1152 290 1161 296 1093 4 -38
7 -561 8 -1161 l1 -1093 280 0 280 0 0 1495 0 1495 -453 0 -453 0 -264 -1007
c-145 -555 -266 -1011 -269 -1015 -3 -4 -116 408 -250 915 -134 507 -256 964
-269 1015 l-25 92 -453 0 -454 0 0 -1495z"/>
<path d="M31240 10035 l0 -1495 278 0 279 0 6 437 c4 240 7 765 8 1167 l1 731
292 -1167 291 -1168 290 0 290 0 290 1161 c288 1152 290 1161 296 1093 4 -38
7 -561 8 -1161 l1 -1093 280 0 280 0 0 1495 0 1495 -453 0 -453 0 -264 -1007
c-145 -555 -266 -1011 -269 -1015 -3 -4 -116 408 -250 915 -134 507 -256 964
-269 1015 l-25 92 -453 0 -454 0 0 -1495z"/>
<path d="M35003 10038 l-581 -1493 316 -3 c208 -1 318 1 322 8 4 6 60 159 126
340 l119 330 597 0 596 0 46 -117 c25 -65 83 -217 130 -338 l84 -220 326 -3
c179 -1 326 1 326 5 0 4 -268 677 -596 1495 l-597 1488 -317 0 -317 0 -580
-1492z m1101 230 c108 -289 196 -529 196 -532 0 -3 -182 -6 -404 -6 l-404 0
194 533 c107 292 197 539 200 547 5 13 6 13 14 0 4 -8 96 -252 204 -542z"/>
<path d="M37740 10035 l0 -1495 280 0 280 0 2 971 3 971 599 -971 598 -971
304 0 304 0 0 1495 0 1495 -280 0 -280 0 -2 -997 -3 -996 -610 996 -609 997
-293 0 -293 0 0 -1495z"/>
<path d="M7675 7710 c-172 -26 -316 -102 -397 -207 -65 -86 -90 -157 -96 -271
-8 -159 40 -277 155 -384 90 -83 203 -131 493 -207 290 -77 360 -117 375 -217
11 -67 -10 -123 -69 -180 -63 -61 -118 -83 -233 -91 -191 -14 -326 52 -392
191 -16 33 -33 78 -36 99 -4 20 -11 39 -15 42 -8 5 -341 -23 -347 -29 -9 -8
31 -168 59 -234 100 -240 302 -363 624 -379 203 -10 393 28 523 104 284 169
339 598 107 828 -96 95 -217 150 -480 216 -293 74 -382 116 -411 193 -15 39
-16 53 -6 86 14 48 67 93 136 117 62 22 238 24 307 4 85 -24 156 -104 173
-194 4 -21 11 -40 16 -43 5 -3 88 -2 184 2 201 8 186 -4 160 119 -45 214 -206
371 -430 420 -85 19 -318 27 -400 15z"/>
<path d="M19018 7709 c-185 -27 -311 -86 -437 -204 -178 -168 -271 -416 -271
-730 0 -286 76 -513 227 -676 151 -162 340 -243 598 -255 399 -19 709 166 843
506 54 137 67 223 66 440 -1 177 -3 204 -27 295 -63 236 -194 417 -382 525
-69 40 -214 86 -308 99 -89 13 -225 12 -309 0z m291 -314 c88 -21 151 -58 217
-126 104 -109 148 -254 148 -484 0 -98 -5 -164 -18 -220 -67 -298 -302 -462
-578 -404 -89 19 -158 58 -229 128 -74 74 -108 137 -140 256 -31 114 -31 364
-1 477 30 112 69 185 132 249 119 120 291 166 469 124z"/>
<path d="M26389 7705 c-176 -33 -285 -91 -415 -220 -79 -79 -98 -104 -143
-195 -85 -173 -117 -347 -108 -580 3 -74 12 -166 21 -205 94 -434 421 -688
850 -662 130 8 212 28 311 77 147 71 269 210 335 381 52 136 62 123 -135 185
-93 29 -171 54 -171 54 -1 0 -7 -21 -13 -46 -30 -120 -107 -236 -192 -290 -82
-51 -204 -67 -307 -40 -158 42 -265 172 -308 371 -24 109 -24 390 -1 493 27
120 71 204 143 271 88 83 148 105 284 105 93 1 111 -2 161 -25 100 -47 168
-124 205 -233 12 -35 20 -45 33 -42 9 3 72 19 141 36 69 17 142 35 162 41 l38
10 -30 79 c-41 113 -90 189 -171 263 -77 73 -193 135 -299 162 -91 23 -295 28
-391 10z"/>
<path d="M31868 7709 c-185 -27 -311 -86 -437 -204 -178 -168 -271 -416 -271
-730 0 -482 225 -807 628 -907 105 -26 358 -31 457 -9 314 70 540 290 619 602
46 186 47 447 2 624 -60 233 -193 417 -381 525 -69 40 -214 86 -308 99 -89 13
-225 12 -309 0z m291 -314 c88 -21 151 -58 217 -126 106 -112 149 -255 147
-494 -1 -233 -48 -376 -158 -486 -92 -92 -203 -139 -327 -139 -137 0 -243 44
-339 139 -74 74 -108 137 -140 256 -31 114 -31 364 -1 477 30 112 69 185 132
249 119 120 291 166 469 124z"/>
<path d="M35358 7710 c-190 -30 -312 -87 -437 -205 -178 -168 -271 -416 -271
-730 0 -352 118 -619 346 -781 273 -195 733 -205 1015 -23 266 172 392 462
376 869 -17 457 -246 764 -638 855 -86 20 -307 28 -391 15z m291 -315 c88 -21
151 -58 217 -126 106 -112 149 -255 147 -494 -1 -233 -48 -376 -158 -486 -92
-92 -203 -139 -327 -139 -137 0 -243 44 -339 139 -74 74 -108 137 -140 256
-31 114 -31 364 -1 477 30 112 69 185 132 249 119 120 291 166 469 124z"/>
<path d="M37375 7713 c-141 -17 -258 -58 -366 -128 -231 -149 -367 -407 -385
-731 -24 -414 150 -760 459 -913 149 -74 245 -95 437 -95 167 -1 259 13 400
61 107 36 245 105 318 160 l62 46 0 369 0 368 -390 0 -390 0 0 -155 0 -155
205 0 205 0 0 -119 0 -120 -29 -20 c-56 -40 -195 -100 -268 -117 -88 -19 -207
-15 -290 11 -76 23 -171 91 -225 162 -84 111 -120 247 -121 453 -2 386 161
597 478 617 197 12 343 -66 417 -222 25 -55 33 -64 51 -60 12 3 91 19 176 35
84 16 155 31 157 33 10 10 -60 175 -100 236 -103 155 -255 243 -476 276 -87
14 -250 18 -325 8z"/>
<path d="M4680 6780 l0 -910 180 0 180 0 0 910 0 910 -180 0 -180 0 0 -910z"/>
<path d="M5400 6780 l0 -910 165 0 165 0 2 593 3 592 360 -592 360 -592 183
-1 182 0 0 910 0 910 -165 0 -165 0 0 -600 c0 -330 -3 -600 -7 -600 -5 0 -171
269 -370 598 l-361 597 -176 3 -176 2 0 -910z"/>
<path d="M8750 7535 l0 -155 270 0 270 0 0 -755 0 -755 180 0 180 0 0 755 0
755 265 0 265 0 0 155 0 155 -715 0 -715 0 0 -155z"/>
<path d="M10410 6780 l0 -910 180 0 180 0 0 910 0 910 -180 0 -180 0 0 -910z"/>
<path d="M10990 7535 l0 -155 270 0 270 0 0 -755 0 -755 180 0 180 0 0 755 0
755 265 0 265 0 0 155 0 155 -715 0 -715 0 0 -155z"/>
<path d="M12653 7053 c3 -544 6 -652 21 -732 22 -124 62 -206 142 -291 117
-123 256 -176 494 -187 400 -17 635 102 724 369 40 118 46 238 46 879 l0 599
-179 0 -180 0 -3 -647 c-5 -730 -3 -716 -79 -798 -63 -68 -123 -89 -254 -90
-135 0 -194 18 -263 80 -67 60 -92 122 -103 250 -4 55 -8 349 -9 653 l0 552
-181 0 -181 0 5 -637z"/>
<path d="M14340 7535 l0 -155 270 0 270 0 0 -755 0 -755 180 0 180 0 0 755 0
755 265 0 265 0 0 155 0 155 -715 0 -715 0 0 -155z"/>
<path d="M16000 6780 l0 -910 685 0 685 0 0 155 0 155 -505 0 -505 0 2 243 3
242 453 3 452 2 0 155 0 155 -455 0 -455 0 2 198 3 197 483 3 482 2 0 155 0
155 -665 0 -665 0 0 -910z"/>
<path d="M20340 6780 l0 -910 180 0 180 0 0 385 0 385 375 0 375 0 0 155 0
155 -375 0 -375 0 0 215 0 215 435 0 435 0 0 155 0 155 -615 0 -615 0 0 -910z"/>
<path d="M22440 7535 l0 -155 270 0 270 0 0 -755 0 -755 180 0 180 0 0 755 0
755 265 0 265 0 0 155 0 155 -715 0 -715 0 0 -155z"/>
<path d="M24110 6780 l0 -910 685 0 685 0 0 155 0 155 -505 0 -505 0 2 243 3
242 453 3 452 2 0 155 0 155 -455 0 -455 0 2 198 3 197 483 3 482 2 0 155 0
155 -665 0 -665 0 0 -910z"/>
<path d="M27600 6780 l0 -910 185 0 185 0 0 395 0 395 355 0 355 0 0 -395 0
-395 180 0 180 0 0 910 0 910 -180 0 -180 0 0 -360 0 -360 -355 0 -355 0 0
360 0 360 -185 0 -185 0 0 -910z"/>
<path d="M29420 6780 l0 -910 165 0 165 0 2 592 3 593 360 -592 360 -592 183
-1 182 0 0 910 0 910 -165 0 -165 0 0 -600 c0 -330 -3 -600 -7 -600 -5 0 -171
269 -370 598 l-361 597 -176 3 -176 2 0 -910z"/>
<path d="M38459 7673 c5 -10 154 -249 330 -532 l321 -513 0 -379 0 -379 180 0
180 0 0 385 0 385 325 520 c179 286 325 522 325 525 0 3 -93 4 -207 3 l-207
-3 -202 -354 c-112 -194 -205 -355 -207 -357 -2 -2 -98 157 -213 353 l-210
358 -212 3 c-201 2 -212 1 -203 -15z"/>
<path d="M33200 6770 l0 -900 635 0 635 0 0 155 0 155 -455 0 -455 0 0 745 0
745 -180 0 -180 0 0 -900z"/>
<path d="M4550 5345 l0 -85 17770 0 17770 0 0 85 0 85 -17770 0 -17770 0 0
-85z"/>
<path d="M24315 4546 c-234 -96 -250 -104 -247 -127 4 -36 13 -40 66 -24 63
19 99 19 137 -1 47 -24 61 -70 70 -234 11 -199 11 -1813 -1 -1928 -5 -55 -16
-108 -27 -130 -24 -47 -87 -80 -171 -88 -60 -7 -62 -8 -62 -35 l0 -29 430 0
430 0 0 30 c0 28 -2 30 -40 30 -125 0 -210 52 -229 141 -7 32 -11 242 -11 584
l0 533 71 66 c138 128 226 170 359 170 94 1 141 -17 192 -71 78 -82 88 -173
88 -791 l0 -480 -28 -52 c-35 -68 -78 -91 -178 -98 -74 -5 -74 -5 -74 -33 l0
-29 425 0 425 0 0 29 c0 27 -2 28 -65 34 -101 10 -151 45 -176 126 -8 24 -14
220 -19 596 -8 623 -10 639 -76 774 -62 125 -151 196 -282 221 -121 24 -260
-8 -380 -87 -31 -21 -108 -88 -169 -149 l-113 -111 0 633 0 634 -47 -1 c-37 0
-107 -25 -298 -103z"/>
<path d="M30730 4549 c-135 -56 -249 -105 -254 -110 -6 -5 -5 -18 2 -33 11
-24 12 -24 58 -10 100 30 160 11 190 -58 17 -39 19 -79 22 -397 l3 -355 -42
38 c-152 138 -442 153 -670 35 -211 -110 -391 -355 -466 -636 -24 -89 -27
-115 -27 -278 0 -211 15 -281 88 -430 150 -303 444 -463 738 -400 119 25 216
79 321 179 l57 55 0 -125 0 -124 48 0 c36 1 103 24 297 104 245 101 250 104
248 131 -1 15 -4 29 -6 31 -1 2 -25 -3 -52 -11 -101 -31 -161 -13 -190 57 -28
66 -34 322 -34 1441 l-1 997 -42 0 c-31 -1 -114 -30 -288 -101z m-227 -967
c77 -38 158 -120 192 -194 53 -117 55 -136 55 -639 l0 -467 -57 -53 c-32 -29
-87 -66 -123 -83 -58 -28 -75 -31 -155 -31 -80 0 -97 4 -155 31 -271 129 -408
452 -370 867 24 256 112 439 260 542 107 74 237 84 353 27z"/>
<path d="M14445 4571 c-167 -27 -298 -93 -415 -211 -69 -68 -94 -102 -127
-170 -54 -112 -68 -174 -67 -300 1 -127 30 -225 98 -329 100 -155 224 -249
663 -502 296 -170 409 -245 472 -315 169 -185 171 -416 4 -583 -104 -103 -238
-147 -423 -138 -130 7 -200 25 -316 82 -111 54 -221 152 -277 246 -42 72 -87
202 -114 332 l-18 87 -32 0 -33 0 0 -440 0 -440 34 0 c31 0 34 3 40 38 9 60
40 100 81 108 42 8 76 0 305 -71 97 -30 215 -60 265 -66 169 -22 377 4 511 62
167 74 323 230 391 394 33 79 46 164 41 277 -8 175 -65 303 -193 434 -86 88
-198 161 -515 339 -436 245 -594 363 -656 490 -25 51 -29 72 -29 140 1 101 31
171 110 254 100 105 217 147 380 138 239 -14 466 -158 564 -358 45 -92 85
-223 96 -312 7 -57 7 -57 41 -57 l34 0 0 440 0 440 -35 0 c-27 0 -35 -4 -35
-17 -1 -38 -39 -102 -71 -118 -44 -23 -81 -17 -222 39 -65 26 -153 56 -195 67
-86 23 -275 33 -357 20z"/>
<path d="M22136 3503 c-502 -1178 -533 -1247 -606 -1352 -56 -79 -89 -100
-194 -127 -62 -15 -66 -18 -66 -45 l0 -29 405 0 405 0 0 28 c0 28 -1 29 -82
41 -100 14 -165 44 -196 91 -45 66 -27 137 126 490 l88 205 499 0 499 0 83
-200 c108 -258 134 -337 140 -410 4 -51 1 -65 -19 -94 -32 -49 -72 -69 -161
-83 -75 -11 -77 -12 -77 -40 l0 -28 505 0 505 0 0 29 c0 27 -3 29 -47 36 -144
21 -228 89 -310 250 -28 55 -250 577 -493 1160 -243 583 -451 1081 -462 1108
-18 42 -24 47 -52 47 l-32 0 -458 -1077z m614 -57 l206 -491 -435 -3 c-239 -1
-436 -1 -437 1 -3 2 260 621 423 997 l15 35 12 -24 c6 -14 103 -246 216 -515z"/>
<path d="M16267 4155 c-27 -63 -70 -148 -96 -188 -86 -131 -230 -267 -338
-320 -35 -17 -43 -26 -43 -49 l0 -28 135 0 135 0 0 -624 c0 -644 4 -734 41
-831 38 -101 150 -182 268 -192 174 -16 360 121 440 325 l21 52 -39 0 c-31 0
-41 -4 -46 -20 -20 -62 -123 -130 -199 -130 -51 0 -109 34 -135 80 -36 64 -41
153 -41 758 l0 582 205 0 205 0 0 60 0 60 -205 0 -205 0 0 290 0 290 -28 0
c-26 0 -31 -8 -75 -115z"/>
<path d="M17479 3725 c-203 -38 -349 -140 -421 -293 -57 -120 -34 -258 52
-304 75 -39 173 -10 209 64 17 37 21 62 21 148 0 120 18 170 78 220 95 78 271
79 378 2 79 -58 124 -193 124 -378 0 -81 -2 -95 -17 -101 -10 -3 -92 -35 -183
-70 -570 -223 -760 -389 -760 -663 0 -191 81 -327 240 -404 60 -29 72 -31 170
-31 160 1 208 23 435 199 l110 85 8 -47 c16 -97 37 -150 71 -180 121 -106 314
-40 487 165 44 51 49 62 49 105 0 26 -3 48 -6 48 -4 0 -37 -29 -75 -65 -99
-93 -155 -99 -194 -20 -19 38 -20 68 -26 620 -4 419 -9 591 -18 620 -43 136
-153 229 -325 271 -90 22 -314 27 -407 9z m414 -1423 c-106 -88 -270 -162
-357 -162 -76 1 -161 53 -211 130 -56 88 -63 212 -19 311 55 123 183 213 469
330 l140 58 3 -322 3 -322 -28 -23z"/>
<path d="M26772 3729 c-299 -50 -542 -288 -621 -609 -46 -190 -47 -447 -1
-625 71 -273 270 -489 520 -567 98 -30 292 -32 385 -4 245 74 451 317 514 604
8 39 7 43 -19 62 l-27 19 -47 -94 c-107 -217 -275 -318 -501 -302 -150 11
-274 74 -390 199 -123 133 -203 358 -205 576 l0 42 601 0 601 0 -7 78 c-18
190 -77 324 -195 443 -58 59 -94 85 -160 118 -131 64 -293 86 -448 60z m181
-144 c66 -31 133 -93 171 -157 27 -47 56 -169 56 -239 l0 -39 -400 0 -401 0 6
38 c22 128 65 222 138 300 93 97 179 134 298 128 55 -3 91 -11 132 -31z"/>
<path d="M28349 3725 c-203 -38 -349 -140 -421 -293 -57 -120 -34 -258 52
-304 75 -39 173 -10 209 64 17 37 21 62 21 148 0 120 18 170 78 220 95 78 271
79 378 2 79 -58 124 -193 124 -378 0 -81 -2 -95 -17 -101 -10 -3 -92 -35 -183
-70 -570 -223 -760 -389 -760 -663 0 -187 78 -323 228 -398 74 -36 79 -37 181
-37 161 1 209 23 436 199 l110 85 8 -47 c16 -97 37 -150 71 -180 121 -106 314
-40 487 165 44 51 49 62 49 105 0 26 -3 48 -6 48 -4 0 -37 -29 -75 -65 -99
-93 -155 -99 -194 -20 -19 38 -20 68 -26 620 -4 419 -9 591 -18 620 -43 136
-153 229 -325 271 -90 22 -314 27 -407 9z m414 -1423 c-106 -88 -270 -162
-357 -162 -76 1 -161 53 -211 130 -56 88 -63 212 -19 311 55 123 183 213 469
330 l140 58 3 -322 3 -322 -28 -23z"/>
<path d="M18560 3661 c0 -27 5 -31 58 -47 69 -21 138 -86 199 -188 22 -37 183
-368 358 -736 l317 -669 -62 -158 c-111 -278 -154 -351 -239 -405 -57 -35 -76
-35 -185 3 -49 17 -113 33 -142 36 -189 20 -283 -178 -149 -312 118 -119 327
-93 522 65 80 65 153 162 213 285 36 75 586 1419 782 1913 37 95 96 153 176
173 37 10 42 15 42 40 l0 29 -280 0 -280 0 0 -30 c0 -27 3 -30 33 -30 54 0
106 -20 123 -46 13 -19 16 -40 12 -93 -4 -59 -31 -132 -208 -576 l-203 -508
-20 39 c-97 188 -432 901 -448 956 -14 45 -20 84 -16 110 9 71 74 118 162 118
43 0 45 1 45 30 l0 30 -405 0 -405 0 0 -29z"/>
</g>
</svg>
